<svg t="1684224334493" class="icon" viewBox="0 0 1024 1024" version="1.1" xmlns="http://www.w3.org/2000/svg" p-id="1089" width="128" height="128"><path d="M568.9856 692.736a53.3504 53.3504 0 0 1-44.1856 5.5296c-66.1504-20.48-241.8176-98.1504-241.8176-335.9744 0-171.6736 139.52-259.2768 197.2736-287.3344a53.9136 53.9136 0 0 1 46.08-0.4608c60.0064 27.904 223.232 116.992 223.232 279.552 0 218.88-116.5312 298.9056-180.5824 338.688z" fill="#73CAFF" p-id="1090"></path><path d="M867.6864 242.2784a77.1584 77.1584 0 0 0-85.3504-30.3104c-64.1024 18.8416-182.9376 63.9488-279.1936 157.5936-101.5808-83.712-222.8224-121.344-282.7264-135.8336A77.1584 77.1584 0 0 0 134.8608 271.36c-96.9728 176.5888-96.9728 365.568 0 505.4464 81.92 118.2208 221.184 183.8592 383.0272 183.8592a629.248 629.248 0 0 0 90.8288-6.7072 29.8496 29.8496 0 0 0 10.24-3.4816c152.3712-29.6448 270.2848-121.1392 323.6864-251.3408 57.9584-141.056 31.2832-303.1552-74.9568-456.8576z m-682.2912 499.712c-83.456-120.32-81.92-285.1328 3.328-440.8832a15.36 15.36 0 0 1 13.6704-8.0896 15.0528 15.0528 0 0 1 3.6352 0.4608c77.1072 18.5856 266.24 78.9504 354.7648 237.1072 55.7568 99.4304 62.5152 222.2592 20.0704 365.2608-168.2432 18.8416-315.136-37.9392-395.4688-153.856zM885.76 675.84c-40.4992 98.7648-125.6448 171.4688-237.056 204.2368 36.8128-145.664 25.2928-273.2544-34.4064-379.7504a444.0576 444.0576 0 0 0-66.1504-89.088c90.112-86.3232 204.8-126.7712 251.4432-140.544a15.8208 15.8208 0 0 1 17.4592 6.3488C911.36 413.2352 935.5776 554.8544 885.76 675.84z" fill="#3D3937" p-id="1091"></path></svg>
