<svg t="1683888608971" class="icon" viewBox="0 0 1024 1024" version="1.1" xmlns="http://www.w3.org/2000/svg" p-id="1417" width="128" height="128"><path d="M0 0h1024v1024H0z" fill="#FFFFFF" p-id="1418"></path><path d="M288 96a192 192 0 1 0 0 384H448a32 32 0 0 0 32-32v-160a192 192 0 0 0-192-192zM448 544h-160a192 192 0 1 0 192 192V576a32 32 0 0 0-32-32zM736 96a192 192 0 0 0-192 192V448a32 32 0 0 0 32 32h160a192 192 0 0 0 0-384z" fill="#111111" p-id="1419"></path><path d="M736 544H576a32 32 0 0 0-32 32v160a192 192 0 1 0 192-192z" fill="#000000" p-id="1420"></path></svg>
